<?xml version="1.0"?><svg version="1.2" baseProfile="tiny-ps" viewBox="0 0 300 300" xmlns="http://www.w3.org/2000/svg" xmlns:xlink="http://www.w3.org/1999/xlink"><title>Shokudo Club</title><g><g fill="#fff" transform="matrix(.1 0 0 -.1 0 300)"><path d="M0 1500V0h3000v3000H0V1500z"/></g><g fill="#dedede" transform="matrix(.1 0 0 -.1 0 300)"><path d="m1320 2745-85-12-64-27c-35-14-85-38-110-53l-46-27-131-130-131-131-38-65c-88-151-117-217-161-362l-23-78-11-95-10-95-1-168v-167l16-100c8-55 29-145 46-200l31-100 60-120c77-154 113-207 190-285 159-161 301-236 520-276l91-17 101 6 101 5 55 20c184 65 362 197 506 375 78 98 88 116 146 272 55 146 82 247 102 386l16 107v340l-35 134-34 134-24 44c-73 137-105 192-149 258l-49 72-112 114-112 113-66 37c-174 95-363 125-589 91zm336-85c22-5 79-25 125-45l84-35 62-48 62-47 83-96c108-125 148-181 197-276 58-112 87-194 112-324l23-114 1-135v-135l-14-85c-28-176-68-307-145-471-51-110-72-138-169-238-88-90-193-170-284-215-88-44-129-55-233-62l-85-6-75 11c-41 7-104 21-140 31l-65 20-75 44-75 44-90 88C849 671 805 731 738 860l-48 95-30 100c-94 324-89 621 16 966l23 76 53 99 53 99 130 131 130 131 66 36 67 37 65 15c131 30 298 37 393 15zm-581-268c-10-28-4-49 48-152l53-105h47l10 16 10 17-23 62c-13 34-40 88-61 120l-38 59-20-2-20-1-6-14zm-108-129c-4-3-7-17-7-29v-23l61-66 61-65h46l12 14 12 15-9 15c-4 8-36 44-71 80l-63 66h-18c-10 0-21-3-24-7zm538-129c-118-13-137-17-244-49-76-23-228-92-281-129-25-16-68-54-96-82l-52-52-32-66-33-66 5-142 5-143 21-85c23-96 65-218 93-270 11-19 19-38 19-41 0-4 16-33 35-65l35-59 65-66 64-65 48-26 48-26 72-11 72-11h137c76 0 135-2 133-4s-54-6-116-9c-61-3-117-8-122-12-6-3-11-17-11-30v-24l18-9 17-9 140 7c154 9 171 12 181 42l6 20-10 10c-6 6-25 14-44 18l-33 8 56 1 55 1 55 27 54 27 46 46c93 93 156 206 223 401l36 107 19 168 18 169-2 97-3 96-25 56-26 56-53 52c-29 28-80 69-112 90l-60 38-50 15-50 15-100-1c-56-1-155-7-221-15zm391-101c78-41 157-103 194-155l30-41v-36c0-20-3-46-6-59l-6-22-18 32-17 33-47 29-46 29-45 1-46 1-10 37-10 37-26 31c-14 17-43 40-64 50l-38 20h-102l-38-20c-22-11-48-31-60-46l-21-26-35 26c-19 15-51 34-71 42l-37 15-48-6-48-7-40-28c-51-37-87-86-107-142l-15-46-40 10-39 10-30-12c-17-7-43-28-60-46l-29-34-13-42-12-43 1-60 1-60-23 29-23 29-7 44-6 45 18 51 18 51 54 59c67 72 109 101 230 156 181 83 270 100 521 97l155-1 61-32zm-145-109 31-15 14-35 14-34-6-55-7-55 15-5 16-6 33 20 34 21h66l29-15 29-15 6-20 7-21-7-39-7-39-18-24c-23-29-107-75-174-94-137-40-198-54-290-68l-100-15h-276l-73 20-72 20-12 16c-7 9-17 42-24 72l-11 55 11 38 11 38 27 20 26 21h47l40-26 40-26 15 6 15 5v117l29 46c16 25 42 55 59 66l30 22h77l32-19 31-20 24-50 23-51h35l15 37c9 20 27 52 41 70l25 33 32 9c47 14 65 13 98-5zm355-480-14-129-47-135-48-135-40-65c-22-36-53-81-68-100l-27-35-58-35-58-35h-511l-33 18c-35 19-172 155-172 170 0 5-8 21-18 35-41 60-109 237-137 355-19 82-20 79 20 55 20-11 70-31 113-45l77-24 105-9 105-9 120 9c66 5 165 18 220 29l101 20 112 40 113 39 69 53c38 29 72 59 76 68l6 16 4-11c3-6-2-69-10-140z"/></g><g fill="#b1b1b1" transform="matrix(.1 0 0 -.1 0 300)"><path d="m1320 2744-95-14-84-40-85-41-67-55c-83-68-209-201-255-272-20-29-55-90-79-135l-43-82-37-110-36-110-14-105-15-105v-325l15-102c32-212 110-413 232-599l43-67 73-69c171-162 313-232 536-264l84-12 82 7 81 6 55 19c30 10 83 32 119 48l65 30 80 61c152 115 282 257 337 367 72 143 136 355 162 536l16 107v321l-35 136-36 137-26 51c-46 92-135 241-179 297-23 30-84 98-135 151l-94 96-75 43-75 44-72 23-73 23-88 10c-110 12-163 11-282-6zm420-112 95-35 53-34c97-62 195-166 313-333 53-75 84-133 127-242l31-77 23-113 23-113-1-165-1-165-22-105c-31-146-57-231-102-331-22-48-39-89-39-92s-16-33-35-66l-35-60-83-83c-108-109-183-166-293-222l-89-46-91-14-91-14-79 9c-241 29-378 100-536 277-196 220-295 480-314 826l-7 111 13 125 12 125 24 95c48 187 100 306 183 415 90 118 243 256 336 303l60 31 85 15c117 21 141 23 250 18l95-4 95-36zm-661-239c0-5-2-17-4-28l-4-20 51-100c61-120 68-127 103-101l19 14-27 73c-15 40-42 94-60 121l-32 47-22 1c-13 0-23-3-24-7zm-101-130-18-4v-15c0-28 28-70 79-117 51-48 58-51 85-41l16 6v45l-69 66c-38 37-71 66-73 66-1-1-11-3-20-6zm547-128-130-14-80-22c-94-25-233-84-312-131l-55-33-69-73-68-73-21-57-22-57 5-130 5-130 12-50c7-27 26-95 42-150l30-100 51-103 50-103 84-85c46-46 97-91 114-100 17-8 67-22 112-30l82-14h125c69 0 165 5 214 10l89 9 55 37c124 82 217 228 297 466l35 104 16 150 16 149-4 125-4 126-26 44-26 45-63 61-64 61-75 36-75 37-105 4-105 5-130-14zm387-108c75-42 172-126 193-168l15-28v-43c0-24-5-50-10-58l-10-15v12c0 16-57 80-84 96-11 6-45 14-75 17l-55 5-9 35c-5 19-19 49-33 66l-23 32-44 21-43 21h-42c-56 0-90-15-134-57l-38-37-42 31c-24 17-60 35-81 41l-38 11-37-6-37-6-54-41-54-41-23-50c-13-27-24-55-24-62 0-19-15-23-53-12l-37 10-36-17-35-17-23-31c-13-17-29-49-36-71l-13-40 1-60 1-60-24 27-23 27-7 54-7 55 20 43c26 58 68 109 134 164l55 45 98 46c92 43 222 86 290 97 17 3 116 4 220 3l190-1 67-38zm-140-116 33-30-2-75-2-75 9-6 9-6 40 21 40 20h78l27-21 26-20v-31c0-17-5-47-11-67l-11-37-47-32-46-32-90-30c-50-16-136-39-190-51l-100-21-189-5-188-5-37 10c-20 6-55 16-78 22l-43 11-16 56-16 56 5 44 5 44 23 26c13 13 32 29 43 35l18 10 59-31 60-31 4 12c3 7 6 34 9 59l4 46 17 37 18 37 40 34 41 35 25 2c46 2 63-2 92-23l30-21 24-49 25-49h25l30 57 30 58 34 22 34 23h77l32-29zm338-453-12-123-44-133-44-133-54-92-54-92-34-31c-37-36-97-68-144-78-17-4-98-9-180-12l-149-4-93 11-93 12-47 37c-97 78-174 194-236 360-27 72-66 211-66 238v12l50-26c27-14 89-37 137-50l88-24h320l85 15c136 22 189 35 293 70 115 39 166 68 233 129 27 24 51 42 53 41 2-2-2-59-9-127zm-590-790-125-9-15-15-15-14 11-18 11-17h129c71 0 146 4 166 8l37 8 6 20 7 21-9 9c-16 16-71 18-203 7z"/></g><g fill="#7d7d7d" transform="matrix(.1 0 0 -.1 0 300)"><path d="m1335 2745-90-14-53-20c-89-35-127-58-199-118-64-54-191-182-232-235-64-81-147-248-190-382l-32-99-16-116-15-116 5-190 6-190 21-97c27-130 60-218 132-363 93-184 142-248 274-356 91-74 176-121 289-157l90-30 95-12 95-12 65 6 66 6 64 21c181 59 365 193 508 369 73 89 97 132 147 263 56 144 90 280 111 437l16 125-5 152-6 152-31 118c-37 139-43 153-130 304-85 147-118 190-238 313l-97 98-75 44-75 45-75 23-75 24-90 11c-109 13-144 13-260-4zm397-106c46-16 112-47 148-69l65-39 67-68c36-37 89-97 116-133 28-36 60-77 71-92 76-97 154-286 187-448l19-95-1-175v-175l-23-105c-39-186-122-405-192-507-47-68-136-159-223-229l-81-64-85-44-85-44-55-13-55-13-90 1-90 1-80 17c-109 23-142 36-229 85l-74 42-83 83c-97 95-157 175-221 295l-46 85-30 100c-17 55-38 141-47 190l-16 90-6 147-6 147 12 93c13 98 37 206 73 323l21 70 51 94 51 94 71 81c112 127 206 207 295 250l55 27 95 19 94 20 122-5 122-5 83-31zm-652-271v-34l49-95 48-94 19-3c11-1 25 2 33 7l15 9-28 72c-16 39-42 92-60 118l-31 47-22 3-23 3v-33zm-116-123-6-16 26-37c14-21 41-52 59-69l32-31 20-2c11-1 26-2 33-1l12 1v35l-62 68-63 67h-46l-5-15zm726-102c-30-1-109-7-175-14l-120-11-87-24c-48-13-128-42-178-63l-91-40-62-44c-79-57-138-121-174-189l-28-53v-135l1-135 17-78c32-144 91-299 160-420 12-21 54-72 94-113l73-74 40-20c21-11 62-25 89-31l49-10 148-3c82-1 189 2 238 6l90 8 45 27c24 14 65 44 89 67l45 41 45 70c58 90 91 163 135 301l36 111 17 152 16 153-4 111-3 112-29 52-29 53-56 53-56 53-69 39-69 39-71 5c-39 3-96 5-126 4zm112-74c29-6 80-25 113-41l59-30 62-60 63-60 16-34 16-35-6-32c-4-18-9-40-12-50l-5-18-16 32c-10 18-34 46-55 63l-37 30-60 4-60 4v44l-27 42-28 43-49 24-50 25h-71l-40-19-41-18-27-32-27-32-46 37-46 38-65 4-64 4-54-37-54-37-26-44c-14-23-28-57-31-73l-6-30-63 6-62 6-35-36-36-36-17-51-17-52 4-59 4-60-28 28-28 28-6 60-6 60 23 50 23 50 63 63 63 62 123 59 122 59 80 23 80 23 160 6c88 3 163 7 167 8s31-3 60-9zm-26-160 29-30-1-72-2-72 9-6 10-6 49 25 49 24 30-7c16-3 42-15 56-26l25-20v-38c0-21-5-51-10-68l-11-30-27-20c-100-74-322-135-552-152l-125-10-100 9c-55 5-122 15-150 22l-50 14-17 45-17 44v43l-1 43 14 34 15 35 34 16 35 17 47-27c26-14 54-26 61-26h14v91l15 37c9 20 33 54 53 75l36 37 39 11 38 10 20-6c10-4 33-18 50-33l31-26 19-44 19-44 13 4c6 3 22 25 33 49l22 45 36 32 37 32h95l30-31zm338-431c-14-145-22-182-67-308-69-193-153-318-250-369l-41-22-81-10c-44-5-136-9-204-9h-124l-66 11c-36 6-78 17-92 25-35 17-138 123-166 171-61 103-131 285-155 403l-14 66 51-27c27-15 91-39 142-53l92-26h296l90 14c137 22 221 42 327 79l97 34 63 46c35 24 74 57 87 71 14 14 25 26 25 26 1 0-4-55-10-122zm-668-817-59-6-10-17-11-16 14-17 14-17 136 4 135 5 28 11 27 12v50l-107-2c-60-1-135-4-167-7z"/></g><g fill="#434343" transform="matrix(.1 0 0 -.1 0 300)"><path d="M1356 2744c-210-29-305-83-499-283l-104-108-58-102c-65-114-95-185-131-305l-25-81-14-115c-17-136-19-260-4-425l10-120 20-80c31-122 57-190 117-310 69-138 119-212 192-285 171-171 343-253 590-281l95-11 82 15 82 16 82 36c46 20 114 57 153 83l71 47 106 105 106 105 46 71 46 70 45 120c77 206 112 371 122 579l6 120-11 105-11 105-30 105-30 104-46 85c-25 46-70 124-100 172l-55 89-105 110-106 110-74 46-74 46-67 23-68 23-108 16c-123 18-118 18-251 0zm274-73 56-9 93-40c51-22 111-53 134-69 92-63 279-285 350-415 20-35 51-103 70-153l35-90 23-120 22-120-1-125-1-125-20-120c-12-66-35-164-52-218l-30-98-59-124-60-124-87-92-88-92-70-52c-96-70-192-122-261-142l-59-16h-210l-93 21c-159 36-239 82-373 215-97 95-139 151-209 281l-51 95-33 113c-53 178-62 245-66 477l-2 133 12 67c17 101 40 198 67 286l24 80 57 105 57 105 125 126 125 126 64 37 65 38 75 18c42 10 90 21 106 23 58 8 211 7 265-2zm-550-303v-33l49-95 49-95 21-3 21-3 7 17 6 17-19 55c-10 31-35 82-56 114l-38 58h-40v-32zm-113-122-6-14 30-45c16-25 45-57 64-71l34-26h42l5 15 6 14-64 71-63 70h-43l-5-14zm523-121c-164-18-290-58-454-143l-68-36-67-65-68-66-28-60-28-60-4-88-4-87 16-98c9-53 30-142 47-197l30-100 55-111 54-111 70-72c39-39 89-82 112-95l42-24 59-11 60-11h373l53 10 53 10 53 35c96 64 185 194 254 372 54 140 67 194 86 372l16 154-4 96-4 96-24 50-24 50-63 62-64 62-81 41-80 40-127-1c-69-1-178-7-241-14zm320-55 54-10 67-40 66-39 51-50c28-27 58-64 67-81l17-32-7-49c-4-27-10-51-14-54-4-2-15 11-24 30l-16 34-42 28-42 28-50 1-51 2-12 42-13 42-23 25c-32 35-77 60-119 68l-36 7-44-12-44-12-38-39-37-40-46 35-46 36-35 6c-19 4-52 4-73 1l-39-5-46-33-45-33-30-59c-17-33-30-66-30-74v-14l-60 7-61 7-44-46-43-46-12-56-12-57 7-44 6-44-15 6c-23 9-46 50-55 101l-9 47 20 56 21 55 73 72 73 72 113 55c62 30 127 58 143 61 17 4 52 14 79 22 56 18 156 28 301 31l100 3 55-11zm-40-145c5-3 17-20 26-37l16-32-6-63-7-63h15c9 0 35 10 59 21l44 22 35-7 34-6 22-21 22-20v-90l-14-28-15-27-42-29-43-28-85-29c-122-41-247-66-386-78l-120-10-85 5c-47 3-118 13-158 23l-74 16-14 28c-8 16-18 49-23 74l-9 45 10 40 11 39 29 25 30 25h21c12 0 40-12 62-25 22-14 46-25 53-25h12v101l19 37 19 38 46 42 46 42h61l39-20 38-20 27-55c15-30 31-55 36-55 4 0 22 27 40 61l33 61 23 15c13 9 38 19 56 23l32 6 27-7c15-4 32-10 38-14zm345-460-14-140-46-134c-58-168-107-259-179-334l-37-37-52-27-52-27-235-1h-235l-42 13-42 12-74 75-74 75-51 103c-27 56-62 137-76 180-26 78-57 209-50 216 1 2 15-6 30-18l27-21 96-30 96-30 110-6 110-5 120 10c180 16 395 70 505 126 48 24 156 111 164 131 14 37 14 1 1-131zm-658-805-68-5-9-14-9-15 11-19 10-19 132 7c73 3 146 9 162 14l29 7v49h-95c-52 1-126-2-163-5z"/></g><g fill="#040404" transform="matrix(.1 0 0 -.1 0 300)"><path d="M1445 2753c-16-2-73-10-125-18l-95-14-68-30c-91-41-147-81-245-176-178-170-275-330-346-571-29-98-42-191-50-361l-6-111 11-124 10-123 24-100c31-126 52-182 122-320 76-149 117-207 209-295 132-126 246-190 419-236l70-19h280l55 19c87 30 189 84 265 141 131 99 281 259 327 350 61 118 130 339 159 505l20 115 1 180v180l-15 60c-58 223-54 213-148 381-57 103-109 174-202 276l-90 99-61 43c-113 81-211 119-346 136-137 17-144 17-175 13zm308-117 95-37 68-48c88-62 159-138 287-311 43-59 99-166 137-265l31-80 25-143 24-144v-63c0-149-49-411-104-555-38-102-94-218-125-264-43-62-174-191-255-250-97-71-149-100-226-125l-65-22-95-5-95-6-105 21-105 21-93 46-93 47-90 85-90 85-53 76c-29 42-72 110-94 151l-40 75-35 115c-54 176-74 324-71 518 5 234 64 470 161 646l50 89 74 81c41 45 106 109 144 143l70 62 58 31 57 30 66 15c35 9 97 19 137 23l72 7 91-6 91-6 96-37zm-673-265v-26l48-94 47-94 17-11 17-11 13 13 12 12-17 52c-9 29-34 82-54 117l-38 64-22 2-23 2v-26zm-110-135v-25l56-60 56-61h49l6 16 6 16-69 69-68 69h-36v-24zm531-111c-172-20-266-48-440-133l-75-36-73-69-72-69-31-61-30-60v-236l20-100c27-137 96-332 136-381 6-8 19-31 29-50l18-35 76-75 76-75 35-17c19-9 66-22 104-29l68-11 202 4 201 5 36 15c146 63 249 207 343 479l36 105 21 175 21 174-5 96-5 96-25 49-25 50-56 54c-62 61-161 125-215 140l-36 10-110-1c-60-1-161-7-224-14zm406-89c82-43 152-101 195-160l28-39v-37c0-20-5-51-11-68l-11-32-22 43-22 42-55 28-54 29-36-5-35-5-12 42c-14 55-44 92-95 117l-41 21h-93l-33-17c-18-9-46-31-61-47l-28-31-49 36-50 36-34 6-33 6-42-9-42-10-44-36-43-36-27-52c-15-29-27-62-27-72v-18l-16 6c-9 3-32 9-52 12l-37 6-35-24-35-23-25-50-25-50 1-80 2-79-32 35-33 35-7 49-6 50 17 50 18 49 59 64c73 78 113 105 235 161 178 82 279 100 526 97l150-2 72-38zm-146-109 34-23 12-37 12-37-8-46-9-46 12-4c6-2 29 5 51 16l39 20h29c36 0 83-25 97-51l12-20-7-42c-9-56-28-83-82-117l-45-29-92-29c-94-31-190-53-311-72l-70-11-135 1-135 1-82 21-82 22-15 40c-8 23-17 55-21 73l-6 31 11 40 10 41 31 25 31 26h21c12 0 40-11 62-25 22-13 46-25 53-25h12v118l33 48 32 48 34 23 34 23h74l33-22 34-23 24-47 25-48h23l12 33c7 19 27 51 45 71l32 38 35 8c55 13 65 11 101-13zm364-389c-3-40-11-108-16-152l-10-78-46-131-45-130-44-71c-24-39-59-89-78-111l-33-40-58-30-58-30h-502l-34 19c-36 19-181 163-181 179 0 5-8 21-18 35-23 34-75 152-101 229-23 68-55 203-49 208 2 2 30-9 63-26 84-41 154-59 275-69l105-9 125 9 125 9 100 21c55 12 145 37 200 56l100 34 50 35c27 19 68 52 90 75 21 22 41 40 43 40s1-33-3-72zm-620-878c-60-4-113-8-117-9-5 0-8-12-8-25v-24l14-5c18-7 237 2 286 12l35 7v49l-50 1c-27 1-99-2-160-6z"/></g></g></svg>